{
	"asset":{
		"generator":"Khronos glTF Blender I/O v4.2.57",
		"version":"2.0"
	},
	"extensionsUsed":[
		"KHR_materials_specular"
	],
	"scene":0,
	"scenes":[
		{
			"name":"Scene",
			"nodes":[
				0,
				1
			]
		}
	],
	"nodes":[
		{
			"mesh":0,
			"name":"Circle.002",
			"rotation":[
				0.7071068286895752,
				0,
				0,
				0.7071068286895752
			],
			"scale":[
				1.9489710330963135,
				1.9489710330963135,
				1.9489710330963135
			],
			"translation":[
				0,
				0.11515594273805618,
				0.05070030689239502
			]
		},
		{
			"mesh":1,
			"name":"Text.001",
			"rotation":[
				-0.7071066498756409,
				0,
				0,
				0.70710688829422
			],
			"scale":[
				-0.43039438128471375,
				-0.19260303676128387,
				-0.43039438128471375
			],
			"translation":[
				-0.10153944790363312,
				0.06963818520307541,
				-0.0051825568079948425
			]
		}
	],
	"materials":[
		{
			"doubleSided":true,
			"name":"Material.002",
			"pbrMetallicRoughness":{
				"baseColorFactor":[
					0.8001648187637329,
					0.002136856084689498,
					0,
					1
				],
				"metallicFactor":0,
				"roughnessFactor":0.5
			}
		},
		{
			"doubleSided":true,
			"extensions":{
				"KHR_materials_specular":{
					"specularColorFactor":[
						2.0,
						2.0,
						2.0
					]
				}
			},
			"name":"Material.001",
			"pbrMetallicRoughness":{
				"baseColorFactor":[
					0.800000011920929,
					0.800000011920929,
					0.800000011920929,
					1
				],
				"metallicFactor":0
			}
		}
	],
	"meshes":[
		{
			"name":"Circle.003",
			"primitives":[
				{
					"attributes":{
						"POSITION":0,
						"NORMAL":1,
						"TEXCOORD_0":2
					},
					"indices":3,
					"material":0
				}
			]
		},
		{
			"name":"Text.011",
			"primitives":[
				{
					"attributes":{
						"POSITION":4,
						"NORMAL":5,
						"TEXCOORD_0":6
					},
					"indices":7,
					"material":1
				}
			]
		}
	],
	"accessors":[
		{
			"bufferView":0,
			"componentType":5126,
			"count":600,
			"max":[
				1,
				0.012422243133187294,
				1
			],
			"min":[
				-1,
				0,
				-1
			],
			"type":"VEC3"
		},
		{
			"bufferView":1,
			"componentType":5126,
			"count":600,
			"type":"VEC3"
		},
		{
			"bufferView":2,
			"componentType":5126,
			"count":600,
			"type":"VEC2"
		},
		{
			"bufferView":3,
			"componentType":5123,
			"count":1188,
			"type":"SCALAR"
		},
		{
			"bufferView":4,
			"componentType":5126,
			"count":17537,
			"max":[
				4.472581386566162,
				1.093794345855713,
				4.602745056152344
			],
			"min":[
				-4.944425106048584,
				-0.3346553146839142,
				-4.814261436462402
			],
			"type":"VEC3"
		},
		{
			"bufferView":5,
			"componentType":5126,
			"count":17537,
			"type":"VEC3"
		},
		{
			"bufferView":6,
			"componentType":5126,
			"count":17537,
			"type":"VEC2"
		},
		{
			"bufferView":7,
			"componentType":5123,
			"count":48504,
			"type":"SCALAR"
		}
	],
	"bufferViews":[
		{
			"buffer":0,
			"byteLength":7200,
			"byteOffset":0,
			"target":34962
		},
		{
			"buffer":0,
			"byteLength":7200,
			"byteOffset":7200,
			"target":34962
		},
		{
			"buffer":0,
			"byteLength":4800,
			"byteOffset":14400,
			"target":34962
		},
		{
			"buffer":0,
			"byteLength":2376,
			"byteOffset":19200,
			"target":34963
		},
		{
			"buffer":0,
			"byteLength":210444,
			"byteOffset":21576,
			"target":34962
		},
		{
			"buffer":0,
			"byteLength":210444,
			"byteOffset":232020,
			"target":34962
		},
		{
			"buffer":0,
			"byteLength":140296,
			"byteOffset":442464,
			"target":34962
		},
		{
			"buffer":0,
			"byteLength":97008,
			"byteOffset":582760,
			"target":34963
		}
	],
	"buffers":[
		{
			"byteLength":679768,
			"uri":"MODEL.bin"
		}
	]
}
