<svg width="34" height="34" viewBox="0 0 34 34" fill="none" xmlns="http://www.w3.org/2000/svg">
<path d="M9.91667 28.3333V12.7146C9.91667 11.9354 10.2 11.2743 10.7667 10.7312C11.3333 10.1882 12.0062 9.91667 12.7854 9.91667H28.3333C29.1125 9.91667 29.7795 10.1941 30.3344 10.749C30.8892 11.3038 31.1667 11.9708 31.1667 12.75V24.0833L24.0833 31.1667H12.75C11.9708 31.1667 11.3038 30.8892 10.749 30.3344C10.1941 29.7795 9.91667 29.1125 9.91667 28.3333ZM2.86875 8.85417C2.72708 8.075 2.88055 7.37257 3.32917 6.74687C3.77778 6.12118 4.39167 5.7375 5.17083 5.59583L20.5417 2.86875C21.3208 2.72708 22.0233 2.88055 22.649 3.32917C23.2747 3.77778 23.6583 4.39167 23.8 5.17083L24.1542 7.08333H21.25L21.0021 5.66667L5.66667 8.39375L7.08333 16.3979V26.2792C6.70555 26.0667 6.3809 25.7833 6.10937 25.4292C5.83785 25.075 5.66667 24.6736 5.59583 24.225L2.86875 8.85417ZM12.75 12.75V28.3333H22.6667V22.6667H28.3333V12.75H12.75Z" fill="#B51F19"/>
</svg>
