<svg width="30" height="30" viewBox="0 0 30 30" fill="none" xmlns="http://www.w3.org/2000/svg">
<path d="M21.1201 0.0400391C25.9939 0.0401027 29.9599 4.00606 29.96 8.87988V21.1201C29.9599 25.9939 25.9939 29.9599 21.1201 29.96H8.87988C4.00606 29.9599 0.0401027 25.9939 0.0400391 21.1201V8.87988C0.0401027 4.00606 4.00606 0.0401027 8.87988 0.0400391H21.1201ZM9.24023 2.2002C5.34488 2.2002 2.2002 5.34488 2.2002 9.24023V20.7598C2.2002 24.6551 5.34488 27.7998 9.24023 27.7998H20.7598C24.6551 27.7998 27.7998 24.6551 27.7998 20.7598V9.24023C27.7998 5.34488 24.6551 2.2002 20.7598 2.2002H9.24023ZM15 7.51953C19.123 7.51953 22.4805 10.877 22.4805 15C22.4805 19.123 19.123 22.4805 15 22.4805C10.877 22.4805 7.51953 19.123 7.51953 15C7.51953 10.877 10.877 7.51953 15 7.51953ZM15 9.24023C11.8113 9.24023 9.24023 11.8113 9.24023 15C9.24024 18.1887 11.8113 20.7598 15 20.7598C18.1887 20.7598 20.7598 18.1887 20.7598 15C20.7598 11.8113 18.1887 9.24024 15 9.24023ZM23.1602 5.48047C23.5208 5.48051 23.8671 5.62292 24.1221 5.87793C24.3771 6.13294 24.5195 6.47921 24.5195 6.83984C24.5195 7.20047 24.377 7.54672 24.1221 7.80176C23.8671 8.05677 23.5208 8.20015 23.1602 8.2002C22.7995 8.2002 22.4533 8.05681 22.1982 7.80176C21.9432 7.54671 21.7998 7.20054 21.7998 6.83984C21.7998 6.47921 21.9432 6.13294 22.1982 5.87793C22.4533 5.62298 22.7995 5.48047 23.1602 5.48047Z" fill="#B51F19"/>
</svg>
