<svg width="34" height="40" viewBox="0 0 34 40" fill="none" xmlns="http://www.w3.org/2000/svg">
<path d="M19.2178 0.301758L33.0947 8.60254L33.5811 8.89355V26.6592L33.1113 26.9521L19.2344 35.6309L18.7119 35.957L18.1855 35.6377L15.5957 34.0645V38.3887L15.5889 38.5166C15.5288 39.1085 15.0586 39.5794 14.4668 39.6396L14.3379 39.6455H1.25781L1.12891 39.6396C0.53702 39.5794 0.0668746 39.1085 0.00683594 38.5166L0 38.3887V10.1318C7.15019e-05 9.48078 0.494861 8.94537 1.12891 8.88086L1.25781 8.87402H14.3379L14.4668 8.88086C15.1008 8.94544 15.5956 9.48083 15.5957 10.1318V14.709C16.315 15.1848 17.1825 15.7599 17.8926 16.2295C18.2106 16.4398 18.4974 16.629 18.7246 16.7793L30.6494 9.4707L18.6953 2.31934L7.67578 8.69141L7.17578 7.82617L6.6748 6.95996L18.2041 0.294922L18.7129 0L19.2178 0.301758ZM1.5 38.1455H14.0957V36.2451H13.25V37.3398H11.75V36.2451H1.5V38.1455ZM9.81055 38.0898H6.24707V36.5898H9.81055V38.0898ZM1.5 34.7451H11.75V31.7305L4.4209 27.2812L4.25098 27.2314L3.53418 27.0195V14.7432H5.53418V24.7578L11.6865 21.0156L11.75 21.1191V14.0684H1.5V34.7451ZM13.25 34.7451H14.0957V33.1543L13.25 32.6406V34.7451ZM15.5957 31.7246L18.6963 33.6074L30.6514 26.1309L18.7148 19.1299L16.7529 20.333L15.708 18.6279L16.8418 17.9326C16.8243 17.9211 16.8067 17.9092 16.7891 17.8975C16.4195 17.6531 16.0075 17.3799 15.5957 17.1074V31.7246ZM13.25 30.3008L14.0957 30.8145V14.0684H13.25V30.3008ZM6.75391 26.3574L11.75 29.3896V23.3174L6.75391 26.3574ZM20.6475 17.9453L31.5811 24.3584V11.2461L20.6475 17.9453ZM1.5 12.5684H11.75V12.4375C11.7499 12.1572 11.5225 11.9297 11.2422 11.9297H9.81055V10.4297H11.2422C12.351 10.4297 13.2499 11.3288 13.25 12.4375V12.5684H14.0957V10.374H1.5V12.5684Z" fill="#B51F19"/>
</svg>
